<?xml version="1.0" encoding="utf-8"?>
<!-- Generator: Adobe Illustrator 15.0.0, SVG Export Plug-In . SVG Version: 6.00 Build 0)  -->
<!DOCTYPE svg PUBLIC "-//W3C//DTD SVG 1.1//EN" "http://www.w3.org/Graphics/SVG/1.1/DTD/svg11.dtd">
<svg version="1.1" id="Layer_1" xmlns="http://www.w3.org/2000/svg" xmlns:xlink="http://www.w3.org/1999/xlink" x="0px" y="0px"
	 width="400px" height="80px" viewBox="-113.5 585 400 80" enable-background="new -113.5 585 400 80" xml:space="preserve">
<g>
	<path fill="#FFFFFF" d="M74.459,609.781c-2.337,0-3.865,1.537-3.865,3.549c0,1.973,1.485,3.545,3.771,3.545h0.052
		c2.377,0,3.86-1.572,3.86-3.545C78.228,611.318,76.796,609.781,74.459,609.781z"/>
	<rect x="70.997" y="619.678" fill="#FFFFFF" width="6.832" height="20.545"/>
	<path fill="#FFFFFF" d="M94.583,619.201c-3.636,0-5.254,2-6.154,3.408v0.057h-0.043c0.011-0.02,0.029-0.041,0.043-0.057v-2.926
		h-6.823c0.084,1.928,0,20.539,0,20.539h6.823v-11.471c0-0.613,0.041-1.223,0.23-1.67c0.49-1.223,1.615-2.492,3.503-2.492
		c2.467,0,3.453,1.883,3.453,4.643v10.99h6.829v-11.775C102.444,622.137,99.074,619.201,94.583,619.201z"/>
	<path fill="#FFFFFF" d="M236.377,640.08c0.005,1.379-0.027,2.402,0.011,2.867c0.078,0.818,0.051,1.783,0.808,2.33
		c1.409,1.025,4.118-0.156,4.796-1.617v1.865h2.516v-14.402h-3.137v9.043c0,1.311,0.076,1.961-0.006,2.195
		c-0.255,0.701-1.404,1.447-1.852,0.076c-0.073-0.244-0.008-0.969-0.008-2.207l-0.017-9.107h-3.123L236.377,640.08z"/>
	<polygon fill="#FFFFFF" points="230.076,645.533 233.219,645.533 233.219,628.598 236.983,628.598 236.983,626.088 226.948,626.07 
		226.948,628.537 230.076,628.549 	"/>
	<path fill="#FFFFFF" d="M245.827,615.143c0.762,0,1.388-0.695,1.388-1.545v-7.965c0-0.852-0.626-1.545-1.388-1.545
		s-1.389,0.693-1.389,1.545v7.965C244.438,614.447,245.065,615.143,245.827,615.143z"/>
	<path fill="#FFFFFF" d="M249.183,644.166c3.3,3.043,5.374,0.961,5.365-2.695l-0.008-7.525c0-2.867-2.137-4.584-5.029-2.264
		l0.011-5.604l-3.134,0.006l-0.021,19.318l2.584-0.037L249.183,644.166z M249.471,633.568c0-0.623,0.62-1.135,1.371-1.135
		c0.76,0,1.377,0.516,1.377,1.135v8.457c0,0.621-0.617,1.129-1.377,1.129c-0.751,0-1.371-0.512-1.371-1.129V633.568z"/>
	<path fill="#FFFFFF" d="M264.375,640.475l-2.353,0.016c-0.006,0.092-0.006,0.201-0.006,0.32v1.32c0,0.707-0.58,1.285-1.29,1.285
		h-0.461c-0.708,0-1.288-0.578-1.288-1.285v-0.145v-1.453v-1.875h5.393v-2.045c0-1.49-0.041-2.982-0.16-3.836
		c-0.391-2.697-4.147-3.129-6.054-1.748c-0.6,0.436-1.052,1.014-1.317,1.787c-0.271,0.779-0.401,1.838-0.401,3.182v4.486
		C256.443,647.951,265.449,646.893,264.375,640.475z M259.034,634.424c0-0.77,0.635-1.404,1.399-1.404h0.195
		c0.767,0,1.398,0.635,1.398,1.404l-0.032,1.74h-2.972L259.034,634.424z"/>
	<path fill="#FFFFFF" d="M-113.5,585v80h400v-80H-113.5z M251.94,602.188h2.87v11.652c0,0.629,0.521,1.146,1.149,1.146
		c0.632,0,1.145-0.518,1.145-1.15v-11.648h2.76v14.975h-3.503l0.057-1.238c-0.238,0.504-0.528,0.879-0.875,1.131
		c-0.347,0.258-0.754,0.381-1.206,0.381c-0.519,0-0.949-0.119-1.285-0.363c-0.342-0.242-0.591-0.561-0.751-0.957
		c-0.166-0.402-0.261-0.818-0.304-1.252c-0.038-0.434-0.057-1.287-0.057-2.578V602.188z M243.338,602.342
		c0.621-0.49,1.41-0.74,2.372-0.74c0.813,0,1.505,0.162,2.085,0.475c0.583,0.314,1.03,0.725,1.339,1.223
		c0.32,0.51,0.534,1.029,0.651,1.564c0.119,0.537,0.173,1.355,0.173,2.451v3.787c0,1.391-0.057,2.41-0.165,3.062
		c-0.105,0.648-0.336,1.25-0.688,1.816c-0.353,0.557-0.803,0.979-1.348,1.242c-0.55,0.275-1.185,0.404-1.897,0.404
		c-0.8,0-1.472-0.105-2.022-0.34c-0.553-0.232-0.984-0.578-1.293-1.041c-0.307-0.457-0.523-1.025-0.653-1.676
		c-0.136-0.652-0.195-1.639-0.195-2.949v-3.971c0-1.434,0.116-2.557,0.353-3.367C242.292,603.48,242.72,602.826,243.338,602.342z
		 M234.17,596.283l2.104,7.328l2.071-7.307h3.616l-3.903,9.836l-0.006,11.488h-3.302l-0.006-11.484l-4.147-9.861H234.17z
		 M-54.94,610.396l-18.952,15.037l-18.96-15.037H-54.94z M-95.347,612.402L-81.987,623l-13.359,13.355V612.402z M-93.571,638.945
		l14.013-14.016l5.536,4.389l0.101,0.123l0.029-0.018l0.012,0.006l0.043-0.057l5.886-4.666l14.234,14.238H-93.571z M-51.611,636.678
		l-13.909-13.904l13.909-11.027V636.678z M35.155,627.9c0.098,0.027,0.152,0.131,0.125,0.229c-0.027,0.08-0.098,0.129-0.174,0.129
		c-0.021,0-0.038,0-0.057-0.004c-4.831-1.475-10.801-1.682-12.79-1.746c-1.54,3.377-4.517,4.873-9.198,5.572v0.006
		c-0.575,0.082-1.177,0.158-1.8,0.223c1.859,1.172,2.391,2.641,2.391,6.604c0,3.969-0.057,4.5-0.043,5.412
		c0.021,1.496,2.217,2.217,2.136,2.699c-0.087,0.477-1.838,0.404-2.656,0.119c-2.326-0.812-2.093-2.748-2.093-2.748l-0.076-5.301
		c0,0,0.16-2.857-0.903-2.857v8.689c0,1.887,1.331,2.461,1.331,3.16c0,1.199-2.423-0.113-3.16-0.867
		c-1.134-1.133-1.004-3.551-0.984-5.455c0.029-1.842-0.017-5.877-0.017-5.877l-0.762,0.018c0,0,0.312,8.811-0.406,10.41
		c-0.933,2.059-3.747,2.77-3.747,1.826c0-0.629,0.688-0.424,1.074-1.844c0.33-1.197,0.217-10.176,0.217-10.176s-0.9,0.531-0.9,2.217
		c0,0.764-0.021,5.162-0.021,6.469c0,1.648-2.337,2.586-3.459,2.586c-0.569,0-1.28-0.027-1.28-0.328
		c0-0.764,2.137-1.211,2.137-2.795c0-1.369-0.027-4.906-0.027-4.906s-1.079,0.184-2.61,0.184c-3.877,0-5.11-2.467-5.69-3.855
		c-0.757-1.799-1.746-2.645-2.787-3.322c-0.643-0.418-0.791-0.906-0.049-1.047c3.433-0.646,4.311,3.893,6.599,4.613
		c1.638,0.516,3.735,0.291,4.782-0.387c0.136-1.389,1.139-2.586,1.968-3.213c-0.049-0.006-0.103-0.012-0.157-0.016
		c-5.73-0.58-9.141-2.6-10.914-5.82c-6.094,0.148-9.554,1.006-12.091,1.643c-0.179,0.051-0.363,0.092-0.537,0.137
		c-0.016,0.006-0.032,0.006-0.043,0.006c-0.087,0-0.157-0.057-0.179-0.143c-0.027-0.096,0.04-0.199,0.138-0.221
		c0.169-0.045,0.353-0.086,0.534-0.133c2.527-0.637,5.964-1.496,11.988-1.662c-0.168-0.328-0.32-0.668-0.456-1.027
		c-2.336-0.023-9.553,0.312-12.025,0.922c-0.017,0.012-0.032,0.012-0.043,0.012c-0.087,0-0.166-0.057-0.185-0.145
		c-0.021-0.102,0.038-0.199,0.136-0.227c2.45-0.602,9.493-0.939,11.987-0.934c-0.559-1.652-0.808-3.541-0.808-5.654
		c0-3.752,1.166-5.162,2.735-7.168c-1.204-4.273,0.429-7.195,0.429-7.195s2.521-0.523,7.286,2.891
		c2.587-1.102,9.473-1.201,12.736-0.244c2.004-1.326,5.66-3.199,7.136-2.674c0.4,0.643,1.263,2.52,0.522,6.643
		c0.502,0.906,3.107,2.83,3.112,8.273c-0.038,2.006-0.249,3.703-0.634,5.135c6.213-0.049,9.867,0.461,12.389,0.922
		c0.098,0.027,0.168,0.119,0.151,0.223c-0.021,0.086-0.098,0.15-0.182,0.15c-0.011,0-0.029,0-0.035-0.004
		c-2.519-0.467-6.175-0.977-12.432-0.918c-0.108,0.363-0.233,0.705-0.369,1.043C24.545,626.215,30.396,626.441,35.155,627.9z
		 M109.119,644.486c0,1.795-1.5,3.256-3.341,3.256H67.262c-1.852,0-3.343-1.455-3.343-3.256V605.52c0-1.797,1.491-3.26,3.343-3.26
		h38.517c1.841,0,3.341,1.457,3.341,3.26V644.486z M184.806,617.436c0.017,0.369,0.022,0.736,0.022,1.107
		c0,11.326-8.621,24.391-24.386,24.391c-4.844,0-9.344-1.416-13.14-3.854c0.67,0.076,1.351,0.117,2.044,0.117
		c4.016,0,7.713-1.367,10.646-3.668c-3.75-0.064-6.919-2.545-8.009-5.951c0.521,0.102,1.063,0.158,1.616,0.158
		c0.777,0,1.534-0.109,2.255-0.305c-3.923-0.789-6.88-4.252-6.88-8.4v-0.109c1.157,0.635,2.48,1.029,3.885,1.072
		c-2.305-1.543-3.817-4.162-3.817-7.137c0-1.568,0.421-3.041,1.163-4.312c4.227,5.189,10.546,8.6,17.668,8.963
		c-0.146-0.629-0.223-1.287-0.223-1.955c0-4.736,3.839-8.574,8.572-8.574c2.467,0,4.692,1.043,6.254,2.711
		c1.957-0.385,3.787-1.102,5.446-2.082c-0.64,2-1.998,3.682-3.769,4.742c1.735-0.201,3.389-0.668,4.923-1.348
		C187.929,614.717,186.479,616.225,184.806,617.436z M268.954,643.783c0,3.861-3.326,7.014-7.385,7.014h-30.376
		c-4.066,0-7.385-3.154-7.385-7.014v-16.08c0-3.848,3.318-7.002,7.385-7.002h30.376c4.059,0,7.385,3.154,7.385,7.002V643.783z"/>
</g>
</svg>
